<svg xmlns="http://www.w3.org/2000/svg" viewBox="0 0 487 487"><title>Asset 6</title><g id="Layer_2" data-name="Layer 2"><g id="Layer_1-2" data-name="Layer 1"><path d="M395,60a32,32,0,0,1,32,32V395a32,32,0,0,1-32,32H92a32,32,0,0,1-32-32V92A32,32,0,0,1,92,60H395m0-60H92A92,92,0,0,0,0,92V395a92,92,0,0,0,92,92H395a92,92,0,0,0,92-92V92A92,92,0,0,0,395,0Z"/><rect x="228.87" y="90.5" width="29.26" height="306"/><path d="M245.63,103V384h-4.26V103h4.26m25-25H216.37V409h54.26V78Z"/><rect x="90.5" y="228.87" width="306" height="29.26"/><path d="M384,241.37v4.26H103v-4.26H384m25-25H78v54.26H409V216.37Z"/></g></g></svg>