<svg xmlns="http://www.w3.org/2000/svg" viewBox="0 0 232 272">
    <defs>
        <style>.cls-1,.cls-3,.cls-4{fill:none;}.cls-1,.cls-2,.cls-3,.cls-4{stroke:#000;stroke-miterlimit:10;}.cls-1{stroke-width:4px;}.cls-4{stroke-width:2px;}</style>
    </defs>
    <title>Asset 15</title>
    <g id="Layer_2" data-name="Layer 2">
        <g id="Layer_1-2" data-name="Layer 1">
            <path class="cls-1" d="M230,61V270H2V2H170Z" />
            <path class="cls-2" d="M230,61H170V2Z" />
            <path class="cls-3" d="M230,61,170,2" />
            <polyline class="cls-4" points="36 96 47.72 96 60 93 72.94 96 86 93 103.28 96 112.61 96 127 93 141.28 96 156.28 96 167 93 180.83 96 191 96" />
            <polyline class="cls-4" points="36.5 74.5 48.22 74.5 60.5 71.5 73.44 74.5 86.5 71.5 103.78 74.5 113.11 74.5 127.5 71.5 141.78 74.5 156.78 74.5 167.5 71.5 181.33 74.5 191.5 74.5" />
            <polyline class="cls-4" points="35.5 121 47.22 121 59.5 118 72.44 121 85.5 118 102.78 121 112.11 121 126.5 118 140.78 121 155.78 121 166.5 118 180.33 121 190.5 121" />
            <polyline class="cls-4" points="35.5 146 47.22 146 59.5 143 72.44 146 85.5 143 102.78 146 112.11 146 126.5 143 140.78 146 155.78 146 166.5 143 180.33 146 190.5 146" />
            <polyline class="cls-4" points="35.5 171 47.22 171 59.5 168 72.44 171 85.5 168 102.78 171 112.11 171 126.5 168 140.78 171 155.78 171 166.5 168 180.33 171 190.5 171" />
            <polyline class="cls-4" points="35.5 196 47.22 196 59.5 193 72.44 196 85.5 193 102.78 196 112.11 196 126.5 193 140.78 196 155.78 196 166.5 193 180.33 196 190.5 196" />
            <polyline class="cls-4" points="36.5 218.5 48.22 218.5 60.5 215.5 73.44 218.5 86.5 215.5 103.78 218.5 113.11 218.5 127.5 215.5 141.78 218.5 156.78 218.5 167.5 215.5 181.33 218.5 191.5 218.5" />
        </g>
    </g>
</svg>