<svg xmlns="http://www.w3.org/2000/svg" viewBox="0 0 100 45"><defs><style>.cls-1{fill:#3d66b0;}.cls-2,.cls-5,.cls-8{fill:#fff;}.cls-3{fill:none;}.cls-3,.cls-4{stroke:#fff;stroke-miterlimit:10;}.cls-4{fill:#f9f9f9;}.cls-5,.cls-8{font-size:18.19px;}.cls-5{font-family:GaramondPremrPro-SmbdCapt, Garamond Premier Pro;}.cls-6,.cls-7,.cls-8{font-family:GaramondPremrPro-Bd, Garamond Premier Pro;}.cls-6{letter-spacing:0em;}.cls-9{letter-spacing:-0.01em;}.cls-10{letter-spacing:0em;}.cls-11{letter-spacing:-0.02em;}</style></defs><title>Asset 13</title><g id="Layer_2" data-name="Layer 2"><g id="Layer_1-2" data-name="Layer 1"><rect class="cls-1" width="43.54" height="45"/><rect class="cls-1" x="42.2" width="57.8" height="45"/><polygon class="cls-2" points="12.78 7.04 10.45 8.05 11.15 11.05 14.42 9.64 12.78 7.04 12.78 7.04"/><polygon class="cls-2" points="18.88 6.28 16.36 6.28 15.9 9.33 19.45 9.33 18.88 6.28 18.88 6.28"/><polygon class="cls-2" points="24.8 8.01 22.46 7 20.93 9.64 24.2 11.05 24.8 8.01 24.8 8.01"/><polygon class="cls-2" points="29.63 11.97 27.84 10.1 25.46 11.93 27.96 14.54 29.63 11.97 29.63 11.97"/><polygon class="cls-2" points="32.65 17.56 31.68 15.12 28.8 15.85 30.16 19.27 32.65 17.56 32.65 17.56"/><polygon class="cls-2" points="33.38 23.92 33.38 21.29 30.45 20.82 30.45 24.51 33.38 23.92 33.38 23.92"/><polygon class="cls-2" points="31.72 30.1 32.69 27.66 30.16 26.06 28.8 29.47 31.72 30.1 31.72 30.1"/><polygon class="cls-2" points="27.93 35.14 29.71 33.28 27.96 30.79 25.46 33.4 27.93 35.14 27.93 35.14"/><polygon class="cls-2" points="22.57 38.29 24.91 37.28 24.2 34.28 20.93 35.69 22.57 38.29 22.57 38.29"/><polygon class="cls-2" points="16.47 39.05 19 39.05 19.45 36 15.9 36 16.47 39.05 16.47 39.05"/><polygon class="cls-2" points="10.55 37.32 12.89 38.33 14.42 35.69 11.15 34.28 10.55 37.32 10.55 37.32"/><polygon class="cls-2" points="5.72 33.36 7.51 35.23 9.89 33.4 7.39 30.79 5.72 33.36 5.72 33.36"/><polygon class="cls-2" points="2.71 27.77 3.67 30.21 6.55 29.47 5.19 26.06 2.71 27.77 2.71 27.77"/><polygon class="cls-2" points="1.97 21.4 1.97 24.04 4.9 24.51 4.9 20.82 1.97 21.4 1.97 21.4"/><polygon class="cls-2" points="3.63 15.23 2.66 17.67 5.19 19.27 6.55 15.85 3.63 15.23 3.63 15.23"/><polygon class="cls-2" points="7.43 10.18 5.64 12.05 7.39 14.54 9.89 11.93 7.43 10.18 7.43 10.18"/><polygon class="cls-2" points="12.78 7.04 10.45 8.05 11.15 11.05 14.42 9.64 12.78 7.04 12.78 7.04"/><polygon class="cls-2" points="18.88 6.28 16.36 6.28 15.9 9.33 19.45 9.33 18.88 6.28 18.88 6.28"/><path class="cls-3" d="M11.48,27.68a6.82,6.82,0,0,0,5.39-1.84c2.54-2.33,2.61-3.22,2.61-3.22a22.72,22.72,0,0,0,5.78,2.81s-1.93,4-4.08,4.34a3.37,3.37,0,0,1-3.54-1.6s-.85,1.36-3.47,1a2.8,2.8,0,0,1-1.38-.56C11.94,28,11.48,27.68,11.48,27.68Z"/><path class="cls-3" d="M13.71,29.05s4.08,2.33,7.85.64"/><ellipse class="cls-4" cx="13.79" cy="18.61" rx="2.54" ry="2.65"/><rect class="cls-1" x="13.33" y="16.6" width="0.92" height="4.18" rx="0.32"/><rect class="cls-1" x="13.31" y="16.69" width="0.96" height="4" rx="0.32" transform="translate(-4.9 32.48) rotate(-90)"/><ellipse class="cls-4" cx="21.64" cy="18.77" rx="2.54" ry="2.65"/><rect class="cls-1" x="21.18" y="16.6" width="0.92" height="4.18" rx="0.32" transform="translate(43.28 37.37) rotate(-180)"/><rect class="cls-1" x="21.16" y="16.69" width="0.96" height="4" rx="0.32" transform="translate(40.33 -2.95) rotate(90)"/><text class="cls-5" transform="translate(36.77 21.37) scale(0.96 1)">S<tspan class="cls-6" x="9.53" y="0">h</tspan><tspan class="cls-7" x="19.1" y="0">eet</tspan></text><text class="cls-8" transform="translate(44.46 35.68) scale(0.96 1)"><tspan class="cls-9">B</tspan><tspan x="11.39" y="0">u</tspan><tspan class="cls-10" x="20.85" y="0">i</tspan><tspan x="25.89" y="0">ld</tspan><tspan class="cls-11" x="40.55" y="0">e</tspan><tspan x="47.99" y="0">r</tspan></text></g></g></svg>