<svg xmlns="http://www.w3.org/2000/svg" viewBox="0 0 99 47"><defs><style>.cls-1{fill:#3d66b0;}.cls-2,.cls-5,.cls-8{fill:#fff;}.cls-3{fill:none;}.cls-3,.cls-4{stroke:#fff;stroke-miterlimit:10;}.cls-4{fill:#f9f9f9;}.cls-5,.cls-8{font-size:18px;}.cls-5{font-family:GaramondPremrPro-SmbdCapt, Garamond Premier Pro;}.cls-6,.cls-7,.cls-8{font-family:GaramondPremrPro-Bd, Garamond Premier Pro;}.cls-6{letter-spacing:0em;}.cls-9{letter-spacing:-0.01em;}.cls-10{letter-spacing:0em;}.cls-11{letter-spacing:-0.02em;}</style></defs><title>Asset 12</title><g id="Layer_2" data-name="Layer 2"><g id="Layer_1-2" data-name="Layer 1"><rect class="cls-1" width="47.46" height="47"/><rect class="cls-1" x="46" width="53" height="47"/><polygon class="cls-2" points="13.93 7.35 11.39 8.41 12.15 11.54 15.72 10.06 13.93 7.35 13.93 7.35"/><polygon class="cls-2" points="20.58 6.55 17.83 6.55 17.34 9.74 21.2 9.74 20.58 6.55 20.58 6.55"/><polygon class="cls-2" points="27.03 8.36 24.49 7.31 22.81 10.06 26.38 11.54 27.03 8.36 27.03 8.36"/><polygon class="cls-2" points="32.3 12.5 30.35 10.55 27.75 12.46 30.48 15.19 32.3 12.5 32.3 12.5"/><polygon class="cls-2" points="35.58 18.34 34.53 15.79 31.39 16.56 32.87 20.12 35.58 18.34 35.58 18.34"/><polygon class="cls-2" points="36.38 24.99 36.38 22.23 33.19 21.74 33.19 25.6 36.38 24.99 36.38 24.99"/><polygon class="cls-2" points="34.58 31.44 35.63 28.89 32.87 27.22 31.39 30.78 34.58 31.44 34.58 31.44"/><polygon class="cls-2" points="30.44 36.7 32.39 34.76 30.48 32.15 27.75 34.88 30.44 36.7 30.44 36.7"/><polygon class="cls-2" points="24.6 39.99 27.15 38.93 26.38 35.8 22.81 37.28 24.6 39.99 24.6 39.99"/><polygon class="cls-2" points="17.95 40.79 20.71 40.79 21.2 37.6 17.34 37.6 17.95 40.79 17.95 40.79"/><polygon class="cls-2" points="11.5 38.98 14.05 40.03 15.72 37.28 12.15 35.8 11.5 38.98 11.5 38.98"/><polygon class="cls-2" points="6.23 34.84 8.18 36.79 10.78 34.88 8.05 32.15 6.23 34.84 6.23 34.84"/><polygon class="cls-2" points="2.95 29 4 31.55 7.14 30.78 5.66 27.22 2.95 29 2.95 29"/><polygon class="cls-2" points="2.15 22.35 2.15 25.11 5.34 25.6 5.34 21.74 2.15 22.35 2.15 22.35"/><polygon class="cls-2" points="3.96 15.9 2.9 18.45 5.66 20.12 7.14 16.56 3.96 15.9 3.96 15.9"/><polygon class="cls-2" points="8.1 10.64 6.15 12.59 8.05 15.19 10.78 12.46 8.1 10.64 8.1 10.64"/><polygon class="cls-2" points="13.93 7.35 11.39 8.41 12.15 11.54 15.72 10.06 13.93 7.35 13.93 7.35"/><polygon class="cls-2" points="20.58 6.55 17.83 6.55 17.34 9.74 21.2 9.74 20.58 6.55 20.58 6.55"/><path class="cls-3" d="M12.51,28.91A7.67,7.67,0,0,0,18.39,27c2.76-2.43,2.85-3.35,2.85-3.35a25.42,25.42,0,0,0,6.29,2.94s-2.1,4.19-4.45,4.53a3.76,3.76,0,0,1-3.86-1.68s-.92,1.42-3.77,1a3.18,3.18,0,0,1-1.51-.58Z"/><path class="cls-3" d="M15,30.34s4.44,2.43,8.55.67"/><circle class="cls-4" cx="15.03" cy="19.43" r="2.77"/><rect class="cls-1" x="14.53" y="17.34" width="1.01" height="4.36" rx="0.32"/><rect class="cls-1" x="14.53" y="17.34" width="1.01" height="4.36" rx="0.32" transform="translate(-4.49 34.55) rotate(-90)"/><circle class="cls-4" cx="23.59" cy="19.6" r="2.77"/><rect class="cls-1" x="23.08" y="17.34" width="1.01" height="4.36" rx="0.32" transform="translate(47.17 39.04) rotate(-180)"/><rect class="cls-1" x="23.08" y="17.34" width="1.01" height="4.36" rx="0.32" transform="translate(43.11 -4.07) rotate(90)"/><text class="cls-5" transform="translate(40.19 22.62)">S<tspan class="cls-6" x="9.43" y="0">h</tspan><tspan class="cls-7" x="18.9" y="0">eet</tspan></text><text class="cls-8" transform="translate(43.47 37.56)"><tspan class="cls-9">B</tspan><tspan x="11.27" y="0">u</tspan><tspan class="cls-10" x="20.63" y="0">i</tspan><tspan x="25.61" y="0">ld</tspan><tspan class="cls-11" x="40.12" y="0">e</tspan><tspan x="47.48" y="0">r</tspan></text></g></g></svg>