<svg xmlns="http://www.w3.org/2000/svg" viewBox="0 0 181 181"><defs><style>.cls-1{fill:#fff;}</style></defs><title>Asset 1</title><g id="Layer_2" data-name="Layer 2"><g id="Layer_1-2" data-name="Layer 1"><rect class="cls-1" x="3" y="3" width="175" height="175" rx="27"/><path d="M151,6a24,24,0,0,1,24,24V151a24,24,0,0,1-24,24H30A24,24,0,0,1,6,151V30A24,24,0,0,1,30,6H151m0-6H30A30,30,0,0,0,0,30V151a30,30,0,0,0,30,30H151a30,30,0,0,0,30-30V30A30,30,0,0,0,151,0Z"/><rect x="88.19" y="18.5" width="5.63" height="143"/><path d="M91.31,21V159h-.62V21h.62m5-5H85.69V164H96.31V16Z"/><rect x="19.5" y="87.19" width="143" height="5.63"/><path d="M160,89.69v.62H22v-.62H160m5-5H17V95.31H165V84.69Z"/></g></g></svg>